<svg width="22" height="13" viewBox="0 0 22 13" fill="none" xmlns="http://www.w3.org/2000/svg">
<path id="rightArrow" d="M21.044 5.84967C21.0437 5.84939 21.0435 5.84907 21.0432 5.84879L16.7503 1.0713C16.4287 0.713402 15.9086 0.714734 15.5884 1.07442C15.2684 1.43407 15.2696 2.01577 15.5912 2.37372L18.4734 5.58125H1.07426C0.620503 5.58125 0.252686 5.99258 0.252686 6.5C0.252686 7.00743 0.620503 7.41875 1.07426 7.41875H18.4734L15.5912 10.6263C15.2696 10.9842 15.2684 11.5659 15.5885 11.9256C15.9086 12.2853 16.4288 12.2866 16.7504 11.9287L21.0433 7.15121C21.0435 7.15093 21.0437 7.15061 21.044 7.15034C21.3658 6.7912 21.3647 6.20761 21.044 5.84967Z" fill="white"/>
</svg>
