<svg xmlns="http://www.w3.org/2000/svg" width="119" height="119" viewBox="0 0 119 119" fill="none">
<g id="vuesax/outline/tick-circle">
<g id="tick-circle">
<path id="Vector" d="M59.5001 112.802C30.0972 112.802 6.198 88.9029 6.198 59.5C6.198 30.0971 30.0972 6.19792 59.5001 6.19792C88.903 6.19792 112.802 30.0971 112.802 59.5C112.802 88.9029 88.903 112.802 59.5001 112.802ZM59.5001 13.6354C34.2126 13.6354 13.6355 34.2125 13.6355 59.5C13.6355 84.7875 34.2126 105.365 59.5001 105.365C84.7876 105.365 105.365 84.7875 105.365 59.5C105.365 34.2125 84.7876 13.6354 59.5001 13.6354Z" fill="#28d648"/>
<path id="Vector_2" d="M52.4613 77.2507C51.4697 77.2507 50.5276 76.854 49.8334 76.1599L35.8013 62.1278C34.3634 60.6899 34.3634 58.3099 35.8013 56.872C37.2393 55.434 39.6193 55.434 41.0572 56.872L52.4613 68.2761L77.9472 42.7903C79.3851 41.3524 81.7651 41.3524 83.203 42.7903C84.6409 44.2282 84.6409 46.6082 83.203 48.0461L55.0893 76.1599C54.3951 76.854 53.453 77.2507 52.4613 77.2507Z" fill="#28d648"/>
</g>
</g>
</svg>