<svg width="119" height="119" viewBox="0 0 119 119" fill="none" xmlns="http://www.w3.org/2000/svg">
<path d="M59.5003 112.802C30.0974 112.802 6.19824 88.9029 6.19824 59.5C6.19824 30.097 30.0974 6.19788 59.5003 6.19788C88.9032 6.19788 112.802 30.097 112.802 59.5C112.802 88.9029 88.9032 112.802 59.5003 112.802ZM59.5003 13.6354C34.2128 13.6354 13.6357 34.2125 13.6357 59.5C13.6357 84.7875 34.2128 105.365 59.5003 105.365C84.7878 105.365 105.365 84.7875 105.365 59.5C105.365 34.2125 84.7878 13.6354 59.5003 13.6354Z" fill="#F48C02"/>
<path d="M52.4611 77.2508C51.4694 77.2508 50.5273 76.8541 49.8332 76.1599L35.8011 62.1278C34.3632 60.6899 34.3632 58.3099 35.8011 56.872C37.239 55.4341 39.619 55.4341 41.0569 56.872L52.4611 68.2762L77.9469 42.7904C79.3848 41.3524 81.7648 41.3524 83.2028 42.7904C84.6407 44.2283 84.6407 46.6083 83.2028 48.0462L55.089 76.1599C54.3948 76.8541 53.4528 77.2508 52.4611 77.2508Z" fill="#F48C02"/>
</svg>
