<svg width="203" height="77" viewBox="0 0 203 77" fill="none" xmlns="http://www.w3.org/2000/svg">
<g clip-path="url(#clip0_61_672)">
<path d="M5.02054 11.4967C5.02054 10.2837 4.37193 9.71429 3.2381 9.71429H0V0.970439H9.47168C13.1158 0.970439 14.8933 2.66871 14.8933 5.58498V6.79802C14.8933 7.68924 14.814 8.58046 14.814 8.58046H14.9774C16.9183 4.53532 21.8547 0 28.3309 0C34.5645 0 38.6096 2.91627 40.3921 8.50124H40.5554C42.7389 4.04515 48.0813 0 54.6417 0C63.2221 0 68.1585 4.85715 68.1585 15.7053V31.8116C68.1585 32.9454 68.8071 33.594 69.9409 33.594H73.0998V42.2537H63.3855C59.4988 42.2537 57.8798 40.6347 57.8798 36.748V17.6461C57.8798 12.9524 56.9885 9.38751 52.2156 9.38751C47.1158 9.38751 43.4717 13.6802 42.3379 18.8592C41.8527 20.4782 41.6893 22.1765 41.6893 24.1223V42.2537H31.4056V17.6461C31.4056 13.195 30.757 9.38751 25.8206 9.38751C20.6416 9.38751 17.1609 13.6802 15.8637 18.9384C15.4577 20.5575 15.2151 22.2557 15.2151 24.1174V42.2488H5.01559V11.4967H5.02054Z" fill="#072249"/>
<path d="M163.999 11.4968C163.999 10.2838 163.35 9.71437 162.217 9.71437H158.979V0.970513H168.366C172.01 0.970513 173.872 2.51034 173.872 5.99105V8.41715C173.872 9.95698 173.708 11.0066 173.708 11.0066H173.872C175.733 5.09983 180.67 0.401123 186.988 0.401123C187.879 0.401123 188.849 0.564513 188.849 0.564513V10.6848C188.849 10.6848 187.795 10.5214 186.339 10.5214C181.967 10.5214 176.951 13.0317 175.085 19.1811C174.52 21.2061 174.194 23.4689 174.194 25.8999V42.2538H163.994V11.4968H163.999Z" fill="#072249"/>
<path d="M136.059 0C124.241 0 117.764 8.65968 117.764 19.587C117.764 20.8001 118.007 23.3896 118.007 23.3896H146.501C145.689 30.6728 140.347 34.4803 134.118 34.4803C127.479 34.4803 118.641 27.2614 115.63 24.256C112.625 27.2614 103.782 34.4803 97.1476 34.4803C90.914 34.4803 85.5716 30.6778 84.7646 23.3896H113.259C113.259 23.3896 113.501 20.8001 113.501 19.587C113.497 8.65968 107.02 0 95.2017 0C82.8187 0 74.2383 8.90229 74.2383 21.6121C74.2383 33.3514 82.7395 43.2241 96.4197 43.2241C106.698 43.2241 115.63 34.7526 115.63 34.7526C115.63 34.7526 124.562 43.2241 134.841 43.2241C148.521 43.2241 157.023 33.3465 157.023 21.6121C157.028 8.90229 148.447 0 136.059 0ZM128.291 16.2697C128.454 11.3333 131.851 7.93185 136.064 7.93185C141.327 7.93185 145.051 11.0907 146.184 16.2697H128.291ZM95.2017 7.93185C99.4103 7.93185 102.812 11.3333 102.975 16.2697H85.0864C86.2202 11.0907 89.9435 7.93185 95.2017 7.93185Z" fill="#072249"/>
<path d="M197.831 0.109009C200.702 0.109009 203 2.45094 203 5.3672C203 8.28347 200.702 10.6403 197.831 10.6403C194.999 10.6403 192.701 8.28347 192.701 5.3672C192.701 2.45094 194.999 0.109009 197.831 0.109009ZM197.831 9.47176C200.044 9.47176 201.737 7.65962 201.737 5.36225C201.737 3.07974 200.044 1.26759 197.831 1.26759C195.662 1.26759 193.984 3.07974 193.984 5.36225C193.979 7.66457 195.662 9.47176 197.831 9.47176ZM196.033 3.59962H195.573V2.7084H198.217C199.252 2.7084 199.94 3.36691 199.94 4.37696C199.94 5.19391 199.38 5.63952 199.004 5.7435V5.7732C199.004 5.7732 199.192 5.81776 199.336 6.06037L199.796 6.92189C199.895 7.09518 200.014 7.09518 200.113 7.09518H200.272V7.97155H199.583C199.197 7.97155 199.009 7.89728 198.836 7.58535L198.133 6.26337C198.019 6.04552 197.86 6.03562 197.657 6.03562H197.256V7.9765H196.033V3.59962ZM197.93 5.1642C198.405 5.1642 198.692 4.86218 198.692 4.37201C198.692 3.86698 198.405 3.59467 197.945 3.59467H197.256V5.15925H197.93V5.1642Z" fill="#072249"/>
<path d="M1.47051 61.4548C1.28237 60.9646 0.940732 60.7764 0.415902 60.7764H0V56.7065H2.75288C4.33727 56.7065 5.08985 57.1967 5.58002 58.5137L9.19937 68.6142C9.61527 69.7431 9.91729 71.3671 9.91729 71.3671H9.99156C9.99156 71.3671 10.2936 69.7481 10.6699 68.6142L14.2892 58.5137C14.7794 57.1967 15.5716 56.7065 17.1164 56.7065H19.6811V60.7764H19.2305C18.7008 60.7764 18.3641 60.9646 18.1759 61.4548L12.6751 75.9272H6.97132L1.47051 61.4548Z" fill="#072249"/>
<path d="M30.2966 56.2509C36.1737 56.2509 40.8476 60.4346 40.8476 66.3117C40.8476 72.2284 36.1737 76.3726 30.2966 76.3726C24.4542 76.3726 19.7852 72.2284 19.7852 66.3117C19.7852 60.4346 24.4542 56.2509 30.2966 56.2509ZM30.2966 72.3077C33.4258 72.3077 36.0252 69.8964 36.0252 66.3167C36.0252 62.7766 33.4258 60.3257 30.2966 60.3257C27.207 60.3257 24.6076 62.7766 24.6076 66.3167C24.6076 69.8964 27.207 72.3077 30.2966 72.3077Z" fill="#072249"/>
<path d="M52.6413 56.2509C58.5184 56.2509 63.1924 60.4346 63.1924 66.3117C63.1924 72.2284 58.5184 76.3726 52.6413 76.3726C46.7989 76.3726 42.1299 72.2284 42.1299 66.3117C42.1249 60.4346 46.7989 56.2509 52.6413 56.2509ZM52.6413 72.3077C55.7705 72.3077 58.3699 69.8964 58.3699 66.3167C58.3699 62.7766 55.7705 60.3257 52.6413 60.3257C49.5518 60.3257 46.9524 62.7766 46.9524 66.3167C46.9524 69.8964 49.5518 72.3077 52.6413 72.3077Z" fill="#072249"/>
<path d="M66.3906 61.6031C66.3906 61.0387 66.0886 60.7763 65.5638 60.7763H64.0586V56.7064H68.4305C70.1238 56.7064 70.9952 57.4243 70.9952 59.0434V60.1722C70.9952 60.8902 70.921 61.3803 70.921 61.3803H70.9952C71.8617 58.6275 74.1591 56.444 77.1001 56.444C77.516 56.444 77.9666 56.5182 77.9666 56.5182V61.2268C77.9666 61.2268 77.4764 61.1526 76.7981 61.1526C74.7631 61.1526 72.4262 62.3211 71.5597 65.1829C71.2973 66.1236 71.1438 67.1782 71.1438 68.312V75.9221H66.3956V61.6031H66.3906Z" fill="#072249"/>
<path d="M86.8941 56.2509C91.0779 56.2509 92.4345 58.5879 92.4345 58.5879H92.5088C92.5088 58.5879 92.4692 58.0977 92.4692 57.459V54.0674C92.4692 53.503 92.1672 53.2406 91.6423 53.2406H90.1372V49.1707H94.6972C96.4698 49.1707 97.262 49.9628 97.262 51.7354V71.0649C97.262 71.5947 97.564 71.8918 98.0888 71.8918H99.5593V75.9221H95.1528C93.4198 75.9221 92.7811 75.0952 92.7811 73.9614C92.7811 73.5455 92.7811 73.2435 92.7811 73.2435H92.7069C92.7069 73.2435 91.1225 76.3727 86.7159 76.3727C81.5171 76.3727 78.1602 72.2631 78.1602 66.3118C78.1503 60.2119 81.8043 56.2509 86.8941 56.2509ZM92.5831 66.2771C92.5831 63.3014 91.0383 60.3604 87.8349 60.3604C85.1959 60.3604 83.0124 62.5092 83.0124 66.3167C83.0124 69.9707 84.9334 72.3473 87.7606 72.3473C90.2461 72.3424 92.5831 70.5352 92.5831 66.2771Z" fill="#072249"/>
<path d="M110.214 56.2509C115.715 56.2509 118.73 60.2811 118.73 65.371C118.73 65.9354 118.616 67.1435 118.616 67.1435H105.352C105.728 70.5351 108.214 72.3077 111.115 72.3077C114.205 72.3077 116.502 70.1588 116.502 70.1588L118.497 73.4761C118.497 73.4761 115.556 76.3776 110.773 76.3776C104.406 76.3776 100.45 71.7779 100.45 66.3167C100.455 60.4 104.451 56.2509 110.214 56.2509ZM113.833 63.8262C113.759 61.5289 112.175 59.9445 110.214 59.9445C107.763 59.9445 106.03 61.415 105.505 63.8262H113.833Z" fill="#072249"/>
<path d="M130.073 56.2509C135.574 56.2509 138.589 60.2811 138.589 65.371C138.589 65.9354 138.476 67.1435 138.476 67.1435H125.211C125.588 70.5351 128.073 72.3077 130.974 72.3077C134.064 72.3077 136.361 70.1588 136.361 70.1588L138.357 73.4761C138.357 73.4761 135.416 76.3776 130.633 76.3776C124.266 76.3776 120.31 71.7779 120.31 66.3167C120.315 60.4 124.31 56.2509 130.073 56.2509ZM133.693 63.8262C133.618 61.5289 132.034 59.9445 130.073 59.9445C127.623 59.9445 125.89 61.415 125.365 63.8262H133.693Z" fill="#072249"/>
<path d="M141.981 54.0674C141.981 53.503 141.679 53.2406 141.155 53.2406H139.649V49.1707H144.209C145.982 49.1707 146.774 49.9628 146.774 51.7354V71.0649C146.774 71.5947 147.076 71.8918 147.601 71.8918H149.072V75.9221H144.551C142.744 75.9221 141.986 75.1695 141.986 73.3574V54.0674H141.981Z" fill="#072249"/>
<path d="M151.478 71.1393H156.112V75.9271H151.478V71.1393Z" fill="#49B7AC"/>
<path d="M158.78 61.6031C158.78 61.0387 158.478 60.7763 157.953 60.7763H156.448V56.7064H160.855C162.548 56.7064 163.38 57.4986 163.38 58.8552V59.4196C163.38 59.8355 163.306 60.2465 163.306 60.2465H163.38C164.207 58.6274 166.281 56.2509 170.163 56.2509C174.421 56.2509 176.872 58.4739 176.872 63.5589V71.06C176.872 71.5897 177.174 71.8868 177.699 71.8868H179.204V75.9171H174.644C172.837 75.9171 172.079 75.1645 172.079 73.3524V64.5342C172.079 62.1973 171.475 60.6129 169.064 60.6129C166.499 60.6129 164.578 62.2319 163.9 64.5342C163.637 65.3264 163.524 66.1929 163.524 67.099V75.9171H158.775V61.6031H158.78Z" fill="#49B7AC"/>
<path d="M181.765 54.0674C181.765 53.503 181.463 53.2406 180.938 53.2406H179.433V49.1707H183.993C185.765 49.1707 186.557 49.9628 186.557 51.7354V71.0649C186.557 71.5947 186.859 71.8918 187.384 71.8918H188.855V75.9221H184.334C182.527 75.9221 181.77 75.1695 181.77 73.3574V54.0674H181.765Z" fill="#49B7AC"/>
</g>
<defs>
<clipPath id="clip0_61_672">
<rect width="203" height="76.3775" fill="white"/>
</clipPath>
</defs>
</svg>
