<svg width="132" height="51" viewBox="0 0 132 51" fill="none" xmlns="http://www.w3.org/2000/svg">
<g clip-path="url(#clip0_61_1308)">
<path d="M3.26459 8.18909C3.26459 7.40031 2.84283 7.03006 2.10556 7.03006H0V1.3444H6.15893C8.52849 1.3444 9.68429 2.4487 9.68429 4.34499V5.13377C9.68429 5.71328 9.63278 6.29279 9.63278 6.29279H9.73903C11.0011 3.66245 14.2109 0.713379 18.4221 0.713379C22.4754 0.713379 25.1058 2.60967 26.2648 6.24128H26.371C27.7908 3.34372 31.2647 0.713379 35.5305 0.713379C41.11 0.713379 44.3198 3.87172 44.3198 10.9257V21.3987C44.3198 22.136 44.7416 22.5578 45.4788 22.5578H47.5329V28.1887H41.2162C38.6889 28.1887 37.6361 27.1359 37.6361 24.6086V12.1877C37.6361 9.13562 37.0566 6.81757 33.953 6.81757C30.6369 6.81757 28.2673 9.60889 27.5301 12.9765C27.2145 14.0293 27.1083 15.1336 27.1083 16.3988V28.1887H20.4214V12.1877C20.4214 9.29338 19.9996 6.81757 16.7898 6.81757C13.4221 6.81757 11.1588 9.60889 10.3153 13.028C10.0513 14.0808 9.89356 15.1851 9.89356 16.3956V28.1855H3.26137V8.18909H3.26459Z" fill="#072249"/>
<path d="M106.64 8.18905C106.64 7.40027 106.218 7.03002 105.481 7.03002H103.375V1.34437H109.479C111.849 1.34437 113.06 2.34563 113.06 4.60895V6.18651C113.06 7.18778 112.953 7.87032 112.953 7.87032H113.06C114.27 4.02944 117.48 0.974121 121.588 0.974121C122.168 0.974121 122.799 1.08036 122.799 1.08036V7.66105C122.799 7.66105 122.113 7.5548 121.166 7.5548C118.323 7.5548 115.062 9.1871 113.848 13.1857C113.481 14.5025 113.269 15.9738 113.269 17.5546V28.1887H106.637V8.18905H106.64Z" fill="#072249"/>
<path d="M88.4721 0.713379C80.7872 0.713379 76.576 6.34431 76.576 13.4498C76.576 14.2386 76.7338 15.9224 76.7338 15.9224H95.2621C94.7341 20.6583 91.2602 23.1341 87.2101 23.1341C82.8927 23.1341 77.1459 18.44 75.1884 16.4858C73.2342 18.44 67.4841 23.1341 63.17 23.1341C59.1166 23.1341 55.6428 20.6615 55.118 15.9224H73.6463C73.6463 15.9224 73.804 14.2386 73.804 13.4498C73.8008 6.34431 69.5897 0.713379 61.9047 0.713379C53.8527 0.713379 48.2733 6.50206 48.2733 14.7666C48.2733 22.4 53.8012 28.8197 62.6967 28.8197C69.3804 28.8197 75.1884 23.3111 75.1884 23.3111C75.1884 23.3111 80.9964 28.8197 87.6801 28.8197C96.5757 28.8197 102.104 22.3968 102.104 14.7666C102.107 6.50206 96.5274 0.713379 88.4721 0.713379ZM83.4207 11.2927C83.527 8.08284 85.7356 5.87104 88.4754 5.87104C91.8977 5.87104 94.3188 7.92509 95.056 11.2927H83.4207ZM61.9047 5.87104C64.6413 5.87104 66.8531 8.08284 66.9594 11.2927H55.3273C56.0645 7.92509 58.4856 5.87104 61.9047 5.87104Z" fill="#072249"/>
<path d="M128.639 0.78418C130.506 0.78418 132 2.30701 132 4.2033C132 6.09959 130.506 7.63208 128.639 7.63208C126.797 7.63208 125.303 6.09959 125.303 4.2033C125.303 2.30701 126.797 0.78418 128.639 0.78418ZM128.639 6.87228C130.078 6.87228 131.179 5.69394 131.179 4.20008C131.179 2.71589 130.078 1.53755 128.639 1.53755C127.229 1.53755 126.137 2.71589 126.137 4.20008C126.134 5.69716 127.229 6.87228 128.639 6.87228ZM127.47 3.05394H127.171V2.47442H128.89C129.563 2.47442 130.01 2.90262 130.01 3.5594C130.01 4.09062 129.647 4.38038 129.402 4.44798V4.4673C129.402 4.4673 129.524 4.49628 129.618 4.65403L129.917 5.21423C129.981 5.32691 130.059 5.32691 130.123 5.32691H130.226V5.89677H129.779C129.527 5.89677 129.405 5.84847 129.292 5.64564L128.835 4.78603C128.761 4.64437 128.658 4.63794 128.526 4.63794H128.265V5.89998H127.47V3.05394ZM128.703 4.0713C129.012 4.0713 129.199 3.87491 129.199 3.55618C129.199 3.22779 129.012 3.05072 128.713 3.05072H128.265V4.06808H128.703V4.0713Z" fill="#072249"/>
<path d="M0.956195 40.6742C0.833854 40.3555 0.611707 40.2331 0.270439 40.2331H0V37.5867H1.79005C2.82029 37.5867 3.30966 37.9054 3.62839 38.7618L5.98185 45.3296C6.25229 46.0636 6.44868 47.1196 6.44868 47.1196H6.49698C6.49698 47.1196 6.69337 46.0669 6.93805 45.3296L9.29151 38.7618C9.61024 37.9054 10.1254 37.5867 11.1299 37.5867H12.7976V40.2331H12.5046C12.1601 40.2331 11.9412 40.3555 11.8188 40.6742L8.24195 50.0848H4.53307L0.956195 40.6742Z" fill="#072249"/>
<path d="M19.7001 37.2903C23.5217 37.2903 26.5609 40.0108 26.5609 43.8323C26.5609 47.6796 23.5217 50.3744 19.7001 50.3744C15.9011 50.3744 12.8651 47.6796 12.8651 43.8323C12.8651 40.0108 15.9011 37.2903 19.7001 37.2903ZM19.7001 47.7312C21.7349 47.7312 23.4251 46.1633 23.4251 43.8356C23.4251 41.5336 21.7349 39.9399 19.7001 39.9399C17.6912 39.9399 16.0009 41.5336 16.0009 43.8356C16.0009 46.1633 17.6912 47.7312 19.7001 47.7312Z" fill="#072249"/>
<path d="M34.2298 37.2903C38.0514 37.2903 41.0906 40.0108 41.0906 43.8323C41.0906 47.6796 38.0514 50.3744 34.2298 50.3744C30.4308 50.3744 27.3948 47.6796 27.3948 43.8323C27.3916 40.0108 30.4308 37.2903 34.2298 37.2903ZM34.2298 47.7312C36.2645 47.7312 37.9548 46.1633 37.9548 43.8356C37.9548 41.5336 36.2645 39.9399 34.2298 39.9399C32.2208 39.9399 30.5306 41.5336 30.5306 43.8356C30.5306 46.1633 32.2208 47.7312 34.2298 47.7312Z" fill="#072249"/>
<path d="M43.1704 40.7705C43.1704 40.4035 42.9741 40.2328 42.6328 40.2328H41.6541V37.5864H44.4969C45.598 37.5864 46.1646 38.0532 46.1646 39.106V39.8401C46.1646 40.3069 46.1163 40.6256 46.1163 40.6256H46.1646C46.728 38.8356 48.2219 37.4158 50.1342 37.4158C50.4047 37.4158 50.6977 37.4641 50.6977 37.4641V40.5258C50.6977 40.5258 50.3789 40.4775 49.9379 40.4775C48.6146 40.4775 47.095 41.2373 46.5316 43.0982C46.361 43.7099 46.2612 44.3957 46.2612 45.1329V50.0813H43.1737V40.7705H43.1704Z" fill="#072249"/>
<path d="M56.5025 37.2904C59.223 37.2904 60.1051 38.81 60.1051 38.81H60.1534C60.1534 38.81 60.1276 38.4913 60.1276 38.076V35.8706C60.1276 35.5036 59.9313 35.333 59.59 35.333H58.6113V32.6865H61.5764C62.729 32.6865 63.2441 33.2016 63.2441 34.3542V46.9232C63.2441 47.2677 63.4405 47.4609 63.7818 47.4609H64.738V50.0815H61.8726C60.7458 50.0815 60.3305 49.5439 60.3305 48.8066C60.3305 48.5362 60.3305 48.3398 60.3305 48.3398H60.2822C60.2822 48.3398 59.2519 50.3745 56.3866 50.3745C53.0061 50.3745 50.8233 47.7023 50.8233 43.8325C50.8168 39.866 53.1928 37.2904 56.5025 37.2904ZM60.2017 43.8099C60.2017 41.875 59.1972 39.9626 57.1142 39.9626C55.3982 39.9626 53.9784 41.3599 53.9784 43.8357C53.9784 46.2117 55.2275 47.7571 57.0659 47.7571C58.6821 47.7538 60.2017 46.5787 60.2017 43.8099Z" fill="#072249"/>
<path d="M71.6664 37.2903C75.2433 37.2903 77.2039 39.911 77.2039 43.2206C77.2039 43.5876 77.1299 44.3732 77.1299 44.3732H68.5048C68.7495 46.5786 70.3657 47.7312 72.2523 47.7312C74.2613 47.7312 75.7552 46.3339 75.7552 46.3339L77.0526 48.491C77.0526 48.491 75.1402 50.3776 72.0302 50.3776C67.8899 50.3776 65.3175 47.3867 65.3175 43.8356C65.3207 39.9882 67.9189 37.2903 71.6664 37.2903ZM74.0198 42.2161C73.9716 40.7223 72.9413 39.692 71.6664 39.692C70.0727 39.692 68.9459 40.6482 68.6046 42.2161H74.0198Z" fill="#072249"/>
<path d="M84.5798 37.2903C88.1567 37.2903 90.1174 39.911 90.1174 43.2206C90.1174 43.5876 90.0433 44.3732 90.0433 44.3732H81.4183C81.663 46.5786 83.2792 47.7312 85.1658 47.7312C87.1748 47.7312 88.6686 46.3339 88.6686 46.3339L89.9661 48.491C89.9661 48.491 88.0537 50.3776 84.9436 50.3776C80.8033 50.3776 78.231 47.3867 78.231 43.8356C78.2342 39.9882 80.8323 37.2903 84.5798 37.2903ZM86.9333 42.2161C86.885 40.7223 85.8548 39.692 84.5798 39.692C82.9862 39.692 81.8593 40.6482 81.5181 42.2161H86.9333Z" fill="#072249"/>
<path d="M92.3228 35.8706C92.3228 35.5036 92.1264 35.333 91.7851 35.333H90.8064V32.6865H93.7716C94.9242 32.6865 95.4393 33.2016 95.4393 34.3542V46.9232C95.4393 47.2677 95.6357 47.4609 95.9769 47.4609H96.9331V50.0815H93.9937C92.8186 50.0815 92.326 49.5922 92.326 48.4138V35.8706H92.3228Z" fill="#072249"/>
<path d="M98.4978 46.9714H101.511V50.0847H98.4978V46.9714Z" fill="#49B7AC"/>
<path d="M103.247 40.7706C103.247 40.4036 103.05 40.2329 102.709 40.2329H101.73V37.5865H104.596C105.697 37.5865 106.238 38.1016 106.238 38.9837V39.3508C106.238 39.6212 106.189 39.8884 106.189 39.8884H106.238C106.775 38.8356 108.124 37.2903 110.648 37.2903C113.417 37.2903 115.011 38.7358 115.011 42.0423V46.9198C115.011 47.2643 115.207 47.4575 115.548 47.4575H116.527V50.0782H113.562C112.387 50.0782 111.894 49.5888 111.894 48.4105V42.6765C111.894 41.1569 111.501 40.1267 109.934 40.1267C108.266 40.1267 107.017 41.1795 106.576 42.6765C106.405 43.1916 106.331 43.7551 106.331 44.3442V50.0782H103.243V40.7706H103.247Z" fill="#49B7AC"/>
<path d="M118.191 35.8706C118.191 35.5036 117.995 35.333 117.654 35.333H116.675V32.6865H119.64C120.793 32.6865 121.308 33.2016 121.308 34.3542V46.9232C121.308 47.2677 121.504 47.4609 121.846 47.4609H122.802V50.0815H119.862C118.687 50.0815 118.195 49.5922 118.195 48.4138V35.8706H118.191Z" fill="#49B7AC"/>
</g>
<defs>
<clipPath id="clip0_61_1308">
<rect width="132" height="49.6642" fill="white" transform="translate(0 0.713379)"/>
</clipPath>
</defs>
</svg>
