<svg width="22" height="12" viewBox="0 0 22 12" fill="none" xmlns="http://www.w3.org/2000/svg">
<path d="M21.7591 5.47058C21.7588 5.47031 21.7586 5.46999 21.7583 5.46971L17.4654 0.692219C17.1438 0.334321 16.6237 0.335653 16.3035 0.695343C15.9834 1.05499 15.9847 1.63669 16.3063 1.99464L19.1885 5.20217H1.78935C1.33559 5.20217 0.967773 5.61349 0.967773 6.12092C0.967773 6.62834 1.33559 7.03967 1.78935 7.03967H19.1885L16.3063 10.2472C15.9847 10.6051 15.9835 11.1869 16.3036 11.5465C16.6237 11.9062 17.1439 11.9075 17.4655 11.5496L21.7584 6.77213C21.7586 6.77185 21.7588 6.77153 21.7591 6.77126C22.0809 6.41212 22.0798 5.82853 21.7591 5.47058Z" fill="white"/>
</svg>
