<svg width="22" height="12" viewBox="0 0 22 12" fill="none" xmlns="http://www.w3.org/2000/svg">
<path d="M21.3289 5.47058C21.3286 5.47031 21.3284 5.46999 21.3281 5.46971L17.0353 0.692219C16.7137 0.334321 16.1935 0.335653 15.8734 0.695343C15.5533 1.05499 15.5545 1.63669 15.8761 1.99464L18.7583 5.20217H1.35917C0.905416 5.20217 0.537598 5.61349 0.537598 6.12092C0.537598 6.62834 0.905416 7.03967 1.35917 7.03967H18.7583L15.8761 10.2472C15.5545 10.6051 15.5533 11.1869 15.8734 11.5465C16.1935 11.9062 16.7137 11.9075 17.0353 11.5496L21.3282 6.77213C21.3284 6.77185 21.3286 6.77153 21.3289 6.77126C21.6507 6.41212 21.6497 5.82853 21.3289 5.47058Z" fill="white"/>
</svg>
