<svg width="117" height="28" viewBox="0 0 117 28" fill="none" xmlns="http://www.w3.org/2000/svg">
<path d="M109.726 25.5209C110.139 25.8368 110.613 26.0632 111.119 26.1858C111.624 26.3084 112.149 26.3244 112.661 26.2329C113.173 26.1413 113.66 25.9443 114.091 25.6542C114.522 25.364 114.889 24.9872 115.166 24.5478C115.578 24.3223 115.937 24.0124 116.221 23.6385C116.504 23.2645 116.705 22.8349 116.811 22.3778C116.917 21.9207 116.925 21.4464 116.835 20.9859C116.745 20.5254 116.559 20.0891 116.288 19.7056L111.733 14.237C108.996 9.43065 105.463 5.1234 101.286 1.49836C98.4113 -1.00636 93.4479 2.84648 96.0405 6.02283L99.3977 10.151C68.2893 -6.3675 27.6493 -2.15318 1.21406 22.1307C-2.10695 25.1624 3.11579 29.8069 6.41913 26.795C30.9268 4.28533 69.3375 1.13055 97.7599 17.215C94.9406 17.5568 92.1562 18.1423 89.4379 18.9647C85.1411 20.2688 87.3603 26.8964 91.6759 25.5913C96.9447 23.9335 102.516 23.4681 107.987 24.2288C108.666 24.6415 109.196 25.0812 109.726 25.5209Z" fill="white"/>
</svg>
